<?xml version="1.0" encoding="iso-8859-1"?>
<!-- Generator: Adobe Illustrator 19.0.0, SVG Export Plug-In . SVG Version: 6.00 Build 0)  -->
<svg version="1.1" id="Capa_1" xmlns="http://www.w3.org/2000/svg" xmlns:xlink="http://www.w3.org/1999/xlink" x="0px" y="0px"
	 viewBox="0 0 512 512" style="enable-background:new 0 0 512 512;" xml:space="preserve">
<g>
	<g>
		<path d="M396.742,102.088c-17.984-30.604-38.579-54.992-61.212-72.485C310.116,9.96,283.358,0,256,0
			c-27.358,0-54.116,9.96-79.529,29.603c-22.633,17.493-43.229,41.881-61.212,72.485C80.814,160.703,60.25,236.259,60.25,304.2
			c0,34.004,5.102,64.808,15.165,91.558c9.668,25.701,23.92,47.755,42.36,65.549C152.144,494.471,199.941,512,256,512
			s103.856-17.529,138.225-50.693c18.439-17.794,32.691-39.848,42.36-65.549c10.063-26.75,15.165-57.554,15.165-91.558
			C451.75,236.259,431.186,160.703,396.742,102.088z M256,482c-103.788,0-165.75-66.467-165.75-177.8
			c0-62.83,19.018-132.705,50.873-186.913C173.72,61.814,215.591,30,256,30s82.28,31.814,114.877,87.287
			C402.732,171.495,421.75,241.37,421.75,304.2C421.75,415.533,359.788,482,256,482z"/>
	</g>
</g>
<g>
</g>
<g>
</g>
<g>
</g>
<g>
</g>
<g>
</g>
<g>
</g>
<g>
</g>
<g>
</g>
<g>
</g>
<g>
</g>
<g>
</g>
<g>
</g>
<g>
</g>
<g>
</g>
<g>
</g>
</svg>
